<mxfile host="65bd71144e">
    <diagram id="h0mmQfKPP6qvMFlj2Vsx" name="Page-1">
        <mxGraphModel dx="1053" dy="794" grid="0" gridSize="10" guides="1" tooltips="1" connect="1" arrows="1" fold="1" page="0" pageScale="1" pageWidth="1100" pageHeight="850" background="#ffffff" math="0" shadow="0">
            <root>
                <mxCell id="0"/>
                <mxCell id="1" parent="0"/>
                <mxCell id="8" style="edgeStyle=none;html=1;exitX=0.5;exitY=0.5;exitDx=0;exitDy=0;exitPerimeter=0;entryX=0;entryY=0.5;entryDx=0;entryDy=0;rounded=1;strokeColor=#000000;endArrow=none;endFill=0;" parent="1" source="2" target="3" edge="1">
                    <mxGeometry relative="1" as="geometry"/>
                </mxCell>
                <mxCell id="10" style="edgeStyle=none;html=1;exitX=0.5;exitY=0.5;exitDx=0;exitDy=0;exitPerimeter=0;entryX=0;entryY=0.5;entryDx=0;entryDy=0;rounded=1;strokeColor=#000000;endArrow=none;endFill=0;" parent="1" source="2" target="9" edge="1">
                    <mxGeometry relative="1" as="geometry">
                        <mxPoint x="170" y="610" as="targetPoint"/>
                    </mxGeometry>
                </mxCell>
                <mxCell id="28" style="html=1;exitX=0.5;exitY=0.5;exitDx=0;exitDy=0;exitPerimeter=0;entryX=0;entryY=0.5;entryDx=0;entryDy=0;endArrow=none;endFill=0;rounded=1;strokeColor=#000000;" parent="1" source="2" target="26" edge="1">
                    <mxGeometry relative="1" as="geometry"/>
                </mxCell>
                <mxCell id="34" style="edgeStyle=none;html=1;exitX=0.5;exitY=0.5;exitDx=0;exitDy=0;exitPerimeter=0;entryX=1;entryY=1;entryDx=0;entryDy=0;strokeColor=#000000;endArrow=none;endFill=0;" edge="1" parent="1" source="2" target="30">
                    <mxGeometry relative="1" as="geometry"/>
                </mxCell>
                <mxCell id="2" value="&lt;b&gt;&lt;font color=&quot;#000000&quot;&gt;Murid&lt;/font&gt;&lt;/b&gt;" style="shape=umlActor;verticalLabelPosition=bottom;verticalAlign=top;html=1;outlineConnect=0;rounded=1;fillColor=#FFCC99;strokeWidth=2;strokeColor=#000000;" parent="1" vertex="1">
                    <mxGeometry x="252" y="771" width="30" height="60" as="geometry"/>
                </mxCell>
                <mxCell id="47" style="edgeStyle=none;html=1;exitX=1;exitY=0;exitDx=0;exitDy=0;entryX=1;entryY=1;entryDx=0;entryDy=0;dashed=1;strokeColor=#000000;" edge="1" parent="1" source="3" target="9">
                    <mxGeometry relative="1" as="geometry"/>
                </mxCell>
                <mxCell id="48" value="Harus" style="edgeLabel;html=1;align=center;verticalAlign=middle;resizable=0;points=[];labelBackgroundColor=#FF3333;fontColor=#FFFFFF;" vertex="1" connectable="0" parent="47">
                    <mxGeometry x="-0.1008" relative="1" as="geometry">
                        <mxPoint as="offset"/>
                    </mxGeometry>
                </mxCell>
                <mxCell id="3" value="Log in" style="ellipse;whiteSpace=wrap;html=1;rounded=1;fillColor=#647687;fontColor=#ffffff;strokeColor=#314354;strokeWidth=2;fontStyle=1" parent="1" vertex="1">
                    <mxGeometry x="542" y="661" width="70" height="40" as="geometry"/>
                </mxCell>
                <mxCell id="7" style="edgeStyle=none;html=1;exitX=0.5;exitY=0.5;exitDx=0;exitDy=0;exitPerimeter=0;entryX=0;entryY=0.5;entryDx=0;entryDy=0;rounded=1;strokeColor=#000000;endArrow=none;endFill=0;" parent="1" source="4" target="3" edge="1">
                    <mxGeometry relative="1" as="geometry">
                        <mxPoint x="442" y="562" as="targetPoint"/>
                    </mxGeometry>
                </mxCell>
                <mxCell id="11" style="edgeStyle=none;html=1;exitX=0.5;exitY=0.5;exitDx=0;exitDy=0;exitPerimeter=0;rounded=1;entryX=0;entryY=0.5;entryDx=0;entryDy=0;strokeColor=#000000;endArrow=none;endFill=0;" parent="1" source="4" target="9" edge="1">
                    <mxGeometry relative="1" as="geometry"/>
                </mxCell>
                <mxCell id="24" style="edgeStyle=none;html=1;exitX=0.5;exitY=0.5;exitDx=0;exitDy=0;exitPerimeter=0;rounded=1;strokeColor=#000000;endArrow=none;endFill=0;" parent="1" source="4" target="23" edge="1">
                    <mxGeometry relative="1" as="geometry"/>
                </mxCell>
                <mxCell id="32" style="edgeStyle=none;html=1;exitX=0.5;exitY=0.5;exitDx=0;exitDy=0;exitPerimeter=0;entryX=1;entryY=0;entryDx=0;entryDy=0;strokeColor=#000000;endArrow=none;endFill=0;" edge="1" parent="1" source="4" target="30">
                    <mxGeometry relative="1" as="geometry"/>
                </mxCell>
                <mxCell id="4" value="&lt;b&gt;&lt;font color=&quot;#000000&quot;&gt;Guru&lt;/font&gt;&lt;/b&gt;" style="shape=umlActor;verticalLabelPosition=bottom;verticalAlign=top;html=1;outlineConnect=0;rounded=1;fillColor=#FFFF99;strokeColor=#000000;strokeWidth=2;" parent="1" vertex="1">
                    <mxGeometry x="252" y="522" width="30" height="60" as="geometry"/>
                </mxCell>
                <mxCell id="6" style="edgeStyle=none;html=1;exitX=0.5;exitY=0.5;exitDx=0;exitDy=0;exitPerimeter=0;entryX=0;entryY=0.5;entryDx=0;entryDy=0;rounded=1;strokeColor=#000000;endArrow=none;endFill=0;" parent="1" source="5" target="3" edge="1">
                    <mxGeometry relative="1" as="geometry"/>
                </mxCell>
                <mxCell id="12" style="edgeStyle=none;html=1;exitX=0.5;exitY=0.5;exitDx=0;exitDy=0;exitPerimeter=0;entryX=0;entryY=0.5;entryDx=0;entryDy=0;rounded=1;strokeColor=#000000;endArrow=none;endFill=0;" parent="1" source="5" target="9" edge="1">
                    <mxGeometry relative="1" as="geometry"/>
                </mxCell>
                <mxCell id="21" style="edgeStyle=none;html=1;exitX=0.5;exitY=0.5;exitDx=0;exitDy=0;exitPerimeter=0;entryX=0;entryY=0.5;entryDx=0;entryDy=0;endArrow=none;endFill=0;rounded=1;strokeColor=#000000;" parent="1" source="5" target="16" edge="1">
                    <mxGeometry relative="1" as="geometry"/>
                </mxCell>
                <mxCell id="5" value="&lt;font size=&quot;1&quot; color=&quot;#000000&quot;&gt;&lt;b style=&quot;font-size: 12px;&quot;&gt;Admin&lt;/b&gt;&lt;/font&gt;" style="shape=umlActor;verticalLabelPosition=bottom;verticalAlign=top;html=1;outlineConnect=0;rounded=1;strokeColor=#000000;strokeWidth=2;perimeterSpacing=0;fillColor=#99FF99;" parent="1" vertex="1">
                    <mxGeometry x="252" y="258" width="30" height="60" as="geometry"/>
                </mxCell>
                <mxCell id="46" style="edgeStyle=none;html=1;exitX=0;exitY=1;exitDx=0;exitDy=0;entryX=0;entryY=0;entryDx=0;entryDy=0;dashed=1;strokeColor=#000000;" edge="1" parent="1" source="9" target="3">
                    <mxGeometry relative="1" as="geometry"/>
                </mxCell>
                <mxCell id="49" value="Harus" style="edgeLabel;html=1;align=center;verticalAlign=middle;resizable=0;points=[];labelBackgroundColor=#FF3333;fontColor=#FFFFFF;" vertex="1" connectable="0" parent="46">
                    <mxGeometry x="0.0686" relative="1" as="geometry">
                        <mxPoint as="offset"/>
                    </mxGeometry>
                </mxCell>
                <mxCell id="9" value="Log out" style="ellipse;whiteSpace=wrap;html=1;rounded=1;fillColor=#647687;fontColor=#ffffff;strokeColor=#314354;strokeWidth=2;fontStyle=1" parent="1" vertex="1">
                    <mxGeometry x="545" y="414" width="70" height="40" as="geometry"/>
                </mxCell>
                <mxCell id="17" style="edgeStyle=none;html=1;exitX=0.5;exitY=1;exitDx=0;exitDy=0;entryX=1;entryY=0.5;entryDx=0;entryDy=0;endArrow=classic;endFill=1;dashed=1;rounded=1;strokeColor=#000000;" parent="1" source="16" target="3" edge="1">
                    <mxGeometry relative="1" as="geometry"/>
                </mxCell>
                <mxCell id="41" value="Harus" style="edgeLabel;html=1;align=center;verticalAlign=middle;resizable=0;points=[];labelBackgroundColor=#FF3333;fontColor=#FFFFFF;fontStyle=1;labelBorderColor=none;fontSize=11;" vertex="1" connectable="0" parent="17">
                    <mxGeometry x="-0.0562" y="-1" relative="1" as="geometry">
                        <mxPoint as="offset"/>
                    </mxGeometry>
                </mxCell>
                <mxCell id="16" value="Fitur Admin" style="ellipse;whiteSpace=wrap;rounded=1;fillColor=#99FF99;fontColor=#000000;strokeColor=#000000;strokeWidth=2;fontStyle=1;fontSize=12;labelBorderColor=none;html=1;" parent="1" vertex="1">
                    <mxGeometry x="894" y="226" width="100" height="70" as="geometry"/>
                </mxCell>
                <mxCell id="25" style="edgeStyle=none;html=1;exitX=0;exitY=1;exitDx=0;exitDy=0;entryX=1;entryY=0.5;entryDx=0;entryDy=0;dashed=1;rounded=1;strokeColor=#000000;" parent="1" source="23" target="3" edge="1">
                    <mxGeometry relative="1" as="geometry"/>
                </mxCell>
                <mxCell id="43" value="Harus" style="edgeLabel;html=1;align=center;verticalAlign=middle;resizable=0;points=[];labelBackgroundColor=#FF3333;fontColor=#FFFFFF;" vertex="1" connectable="0" parent="25">
                    <mxGeometry x="0.0837" relative="1" as="geometry">
                        <mxPoint as="offset"/>
                    </mxGeometry>
                </mxCell>
                <mxCell id="23" value="Fitur Guru" style="ellipse;whiteSpace=wrap;html=1;rounded=1;strokeColor=#000000;strokeWidth=2;fillColor=#FFFF99;fontColor=#000000;fontStyle=1" parent="1" vertex="1">
                    <mxGeometry x="889" y="507" width="110" height="70" as="geometry"/>
                </mxCell>
                <mxCell id="42" style="edgeStyle=none;html=1;exitX=0.5;exitY=0;exitDx=0;exitDy=0;entryX=1;entryY=0.5;entryDx=0;entryDy=0;dashed=1;strokeColor=#000000;" edge="1" parent="1" source="26" target="3">
                    <mxGeometry relative="1" as="geometry"/>
                </mxCell>
                <mxCell id="44" value="Harus" style="edgeLabel;html=1;align=center;verticalAlign=middle;resizable=0;points=[];labelBackgroundColor=#FF3333;fontColor=#FFFFFF;" vertex="1" connectable="0" parent="42">
                    <mxGeometry x="-0.1148" y="1" relative="1" as="geometry">
                        <mxPoint as="offset"/>
                    </mxGeometry>
                </mxCell>
                <mxCell id="26" value="Fitur Murid" style="ellipse;whiteSpace=wrap;html=1;rounded=1;fontColor=#000000;fontStyle=1;fillColor=#FFCC99;strokeColor=#000000;strokeWidth=2;" parent="1" vertex="1">
                    <mxGeometry x="899" y="783" width="90" height="60" as="geometry"/>
                </mxCell>
                <mxCell id="38" style="html=1;exitX=0.5;exitY=0;exitDx=0;exitDy=0;entryX=0.5;entryY=0.5;entryDx=0;entryDy=0;entryPerimeter=0;dashed=1;strokeColor=#000000;" edge="1" parent="1" source="30" target="5">
                    <mxGeometry relative="1" as="geometry">
                        <Array as="points"/>
                    </mxGeometry>
                </mxCell>
                <mxCell id="39" value="Mengubungi nomor&lt;br&gt;whatsapp admin untuk&lt;br&gt;minta mereset password" style="edgeLabel;html=1;align=center;verticalAlign=middle;resizable=0;points=[];labelBorderColor=none;labelBackgroundColor=#4D4D4D;fontColor=#FFFFFF;" vertex="1" connectable="0" parent="38">
                    <mxGeometry x="0.0376" y="4" relative="1" as="geometry">
                        <mxPoint x="-4" y="5" as="offset"/>
                    </mxGeometry>
                </mxCell>
                <mxCell id="50" style="edgeStyle=none;html=1;exitX=1;exitY=0.5;exitDx=0;exitDy=0;entryX=0.5;entryY=1;entryDx=0;entryDy=0;dashed=1;strokeColor=#000000;" edge="1" parent="1" source="30" target="9">
                    <mxGeometry relative="1" as="geometry"/>
                </mxCell>
                <mxCell id="53" value="Harus" style="edgeLabel;html=1;align=center;verticalAlign=middle;resizable=0;points=[];labelBackgroundColor=#FF3333;fontColor=#FFFFFF;" vertex="1" connectable="0" parent="50">
                    <mxGeometry x="-0.5714" y="-1" relative="1" as="geometry">
                        <mxPoint as="offset"/>
                    </mxGeometry>
                </mxCell>
                <mxCell id="30" value="Lupa password" style="ellipse;whiteSpace=wrap;html=1;fillColor=#647687;fontColor=#ffffff;strokeColor=#314354;strokeWidth=2;fontStyle=1" vertex="1" parent="1">
                    <mxGeometry x="-40" y="692" width="101" height="51.5" as="geometry"/>
                </mxCell>
                <mxCell id="57" style="edgeStyle=none;html=1;exitX=0;exitY=0.5;exitDx=0;exitDy=0;entryX=1;entryY=0.5;entryDx=0;entryDy=0;strokeColor=#000000;fontSize=11;fontColor=#FFFFFF;endArrow=none;endFill=0;startArrow=classic;startFill=1;" edge="1" parent="1" source="55" target="16">
                    <mxGeometry relative="1" as="geometry"/>
                </mxCell>
                <mxCell id="55" value="Mengatur waktu ujian" style="ellipse;whiteSpace=wrap;rounded=1;fillColor=#99FF99;fontColor=#000000;strokeColor=#000000;strokeWidth=2;fontStyle=1;fontSize=12;labelBorderColor=none;html=1;" vertex="1" parent="1">
                    <mxGeometry x="1216" y="240" width="100" height="70" as="geometry"/>
                </mxCell>
                <mxCell id="58" style="edgeStyle=none;html=1;exitX=0;exitY=1;exitDx=0;exitDy=0;entryX=1;entryY=0.5;entryDx=0;entryDy=0;strokeColor=#000000;fontSize=11;fontColor=#FFFFFF;endArrow=none;endFill=0;startArrow=classic;startFill=1;" edge="1" parent="1" source="56" target="16">
                    <mxGeometry relative="1" as="geometry"/>
                </mxCell>
                <mxCell id="56" value="Membuat akun guru dan murid" style="ellipse;whiteSpace=wrap;rounded=1;fillColor=#99FF99;fontColor=#000000;strokeColor=#000000;strokeWidth=2;fontStyle=1;fontSize=12;labelBorderColor=none;html=1;" vertex="1" parent="1">
                    <mxGeometry x="1041" y="146" width="100" height="70" as="geometry"/>
                </mxCell>
                <mxCell id="60" style="edgeStyle=none;html=1;entryX=0.5;entryY=1;entryDx=0;entryDy=0;strokeColor=#000000;fontSize=11;fontColor=#FFFFFF;endArrow=none;endFill=0;startArrow=classic;startFill=1;" edge="1" parent="1" source="59" target="23">
                    <mxGeometry relative="1" as="geometry"/>
                </mxCell>
                <mxCell id="59" value="Membuat soal ujian" style="ellipse;whiteSpace=wrap;html=1;rounded=1;strokeColor=#000000;strokeWidth=2;fillColor=#FFFF99;fontColor=#000000;fontStyle=1" vertex="1" parent="1">
                    <mxGeometry x="883.9999999999998" y="622" width="110" height="70" as="geometry"/>
                </mxCell>
                <mxCell id="63" style="edgeStyle=none;html=1;exitX=0;exitY=0.5;exitDx=0;exitDy=0;entryX=1;entryY=0.5;entryDx=0;entryDy=0;strokeColor=#000000;fontSize=11;fontColor=#FFFFFF;endArrow=none;endFill=0;startArrow=classic;startFill=1;" edge="1" parent="1" source="62" target="26">
                    <mxGeometry relative="1" as="geometry"/>
                </mxCell>
                <mxCell id="64" style="edgeStyle=none;html=1;exitX=0.5;exitY=0;exitDx=0;exitDy=0;entryX=0.5;entryY=1;entryDx=0;entryDy=0;strokeColor=#000000;fontSize=11;fontColor=#FFFFFF;endArrow=classic;endFill=1;dashed=1;" edge="1" parent="1" source="62" target="55">
                    <mxGeometry relative="1" as="geometry"/>
                </mxCell>
                <mxCell id="62" value="Mengerjakan ujian" style="ellipse;whiteSpace=wrap;html=1;rounded=1;fontColor=#000000;fontStyle=1;fillColor=#FFCC99;strokeColor=#000000;strokeWidth=2;" vertex="1" parent="1">
                    <mxGeometry x="1315.9999999999998" y="773" width="90" height="60" as="geometry"/>
                </mxCell>
                <mxCell id="65" value="Sesuai &lt;br&gt;waktu ujian" style="edgeLabel;html=1;align=center;verticalAlign=middle;resizable=0;points=[];labelBackgroundColor=#FF3333;fontColor=#FFFFFF;" vertex="1" connectable="0" parent="1">
                    <mxGeometry x="-0.5714" y="-1" relative="1" as="geometry">
                        <mxPoint x="1314" y="549" as="offset"/>
                    </mxGeometry>
                </mxCell>
                <mxCell id="67" style="edgeStyle=none;html=1;exitX=0;exitY=0;exitDx=0;exitDy=0;entryX=1;entryY=1;entryDx=0;entryDy=0;strokeColor=#000000;fontSize=11;fontColor=#FFFFFF;endArrow=none;endFill=0;startArrow=classic;startFill=1;" edge="1" parent="1" source="66" target="26">
                    <mxGeometry relative="1" as="geometry"/>
                </mxCell>
                <mxCell id="66" value="Melihat rapor dirinya sendiri" style="ellipse;whiteSpace=wrap;html=1;rounded=1;fontColor=#000000;fontStyle=1;fillColor=#FFCC99;strokeColor=#000000;strokeWidth=2;" vertex="1" parent="1">
                    <mxGeometry x="994" y="848" width="107" height="66" as="geometry"/>
                </mxCell>
                <mxCell id="69" style="edgeStyle=none;html=1;exitX=0;exitY=0;exitDx=0;exitDy=0;entryX=1;entryY=1;entryDx=0;entryDy=0;strokeColor=#000000;fontSize=11;fontColor=#FFFFFF;startArrow=classic;startFill=1;endArrow=none;endFill=0;" edge="1" parent="1" source="68" target="23">
                    <mxGeometry relative="1" as="geometry"/>
                </mxCell>
                <mxCell id="68" value="Melihat nilai murid yg selesai mengerjakan soal ujian yang dibuat" style="ellipse;whiteSpace=wrap;html=1;rounded=1;strokeColor=#000000;strokeWidth=2;fillColor=#FFFF99;fontColor=#000000;fontStyle=1" vertex="1" parent="1">
                    <mxGeometry x="999" y="577.5" width="202" height="85.5" as="geometry"/>
                </mxCell>
                <mxCell id="72" style="edgeStyle=none;html=1;exitX=0;exitY=0.5;exitDx=0;exitDy=0;entryX=1;entryY=0.5;entryDx=0;entryDy=0;strokeColor=#000000;fontSize=11;fontColor=#FFFFFF;startArrow=classic;startFill=1;endArrow=none;endFill=0;" edge="1" parent="1" source="70" target="23">
                    <mxGeometry relative="1" as="geometry"/>
                </mxCell>
                <mxCell id="70" value="Melihat murid yg belum/tidak mengerjakan soal ujian yang dibuat" style="ellipse;whiteSpace=wrap;html=1;rounded=1;strokeColor=#000000;strokeWidth=2;fillColor=#FFFF99;fontColor=#000000;fontStyle=1" vertex="1" parent="1">
                    <mxGeometry x="1030" y="487" width="161" height="80" as="geometry"/>
                </mxCell>
                <mxCell id="78" style="edgeStyle=none;html=1;exitX=0.5;exitY=1;exitDx=0;exitDy=0;entryX=0;entryY=0;entryDx=0;entryDy=0;strokeColor=#000000;fontSize=11;fontColor=#FFFFFF;startArrow=classic;startFill=1;endArrow=none;endFill=0;" edge="1" parent="1" source="74" target="16">
                    <mxGeometry relative="1" as="geometry"/>
                </mxCell>
                <mxCell id="74" value="Melihat semua rapor murid" style="ellipse;whiteSpace=wrap;rounded=1;fillColor=#99FF99;fontColor=#000000;strokeColor=#000000;strokeWidth=2;fontStyle=1;fontSize=12;labelBorderColor=none;html=1;" vertex="1" parent="1">
                    <mxGeometry x="789" y="1" width="100" height="70" as="geometry"/>
                </mxCell>
                <mxCell id="79" style="edgeStyle=none;html=1;exitX=0.5;exitY=1;exitDx=0;exitDy=0;entryX=0.5;entryY=0;entryDx=0;entryDy=0;strokeColor=#000000;fontSize=11;fontColor=#FFFFFF;startArrow=classic;startFill=1;endArrow=none;endFill=0;" edge="1" parent="1" source="75" target="16">
                    <mxGeometry relative="1" as="geometry"/>
                </mxCell>
                <mxCell id="75" value="Melihat semua akun yang sudah dibuat" style="ellipse;whiteSpace=wrap;rounded=1;fillColor=#99FF99;fontColor=#000000;strokeColor=#000000;strokeWidth=2;fontStyle=1;fontSize=12;labelBorderColor=none;html=1;" vertex="1" parent="1">
                    <mxGeometry x="897" y="-35" width="116" height="76" as="geometry"/>
                </mxCell>
                <mxCell id="81" style="edgeStyle=none;html=1;exitX=0;exitY=1;exitDx=0;exitDy=0;entryX=0.5;entryY=0;entryDx=0;entryDy=0;strokeColor=#000000;fontSize=11;fontColor=#FFFFFF;startArrow=classic;startFill=1;endArrow=none;endFill=0;" edge="1" parent="1" source="76" target="16">
                    <mxGeometry relative="1" as="geometry"/>
                </mxCell>
                <mxCell id="76" value="Melihat semua nilai murid yg selesai mengerjakan ujian" style="ellipse;whiteSpace=wrap;rounded=1;fillColor=#99FF99;fontColor=#000000;strokeColor=#000000;strokeWidth=2;fontStyle=1;fontSize=12;labelBorderColor=none;html=1;" vertex="1" parent="1">
                    <mxGeometry x="1030" y="-26" width="199" height="77" as="geometry"/>
                </mxCell>
                <mxCell id="82" style="edgeStyle=none;html=1;exitX=0;exitY=0.5;exitDx=0;exitDy=0;entryX=1;entryY=0;entryDx=0;entryDy=0;strokeColor=#000000;fontSize=11;fontColor=#FFFFFF;startArrow=classic;startFill=1;endArrow=none;endFill=0;" edge="1" parent="1" source="77" target="16">
                    <mxGeometry relative="1" as="geometry"/>
                </mxCell>
                <mxCell id="77" value="Melihat semua murid yg belum/tidak mengerjakan ujian" style="ellipse;whiteSpace=wrap;rounded=1;fillColor=#99FF99;fontColor=#000000;strokeColor=#000000;strokeWidth=2;fontStyle=1;fontSize=12;labelBorderColor=none;html=1;" vertex="1" parent="1">
                    <mxGeometry x="1068" y="61" width="205" height="65" as="geometry"/>
                </mxCell>
            </root>
        </mxGraphModel>
    </diagram>
</mxfile>